# xmcd
#
# Track frame offsets: 
#        150
#        16303
#        52018
#        93983
#        125973
#        159968
#        179963
#        213548
#        226393
#        257913
#        294203
#        313848
#
# Disc length: 4472 seconds
#
# Revision: 5
# Processed by: cddbd v1.5.2PL0 Copyright (c) Steve Scherf et al.
# Submitted via: ExactAudioCopy v0.95b4
#
DISCID=b311760c
DTITLE=Australian Chamber Orchestra - Song of the Angel
DYEAR=2003
DGENRE=Tango
TTITLE0=La Muerte del Ángel
TTITLE1=Aconcagua - Allegro marcato
TTITLE2=Aconcagua - Moderato
TTITLE3=Aconcagua - Presto
TTITLE4=Romance del Diablo
TTITLE5=Tanguedia
TTITLE6=Milonga del Ángel
TTITLE7=Vayamos al Diablo
TTITLE8=Tres Tangos - Allegro tranquillo
TTITLE9=Tres Tangos - Moderato místico
TTITLE10=Tres Tangos - Allegretto molto marcato
TTITLE11=Oblivion
EXTD=YEAR: 2003
EXTT0=
EXTT1=
EXTT2=
EXTT3=
EXTT4=
EXTT5=
EXTT6=
EXTT7=
EXTT8=
EXTT9=
EXTT10=
EXTT11=
PLAYORDER=
